<svg data-v-fde0c5aa="" xmlns="http://www.w3.org/2000/svg" viewBox="0 0 300 300" class="iconLeftSlogan"><!----><defs data-v-fde0c5aa=""><!----></defs><rect data-v-fde0c5aa="" fill="transparent" x="0" y="0" width="300px" height="300px" class="logo-background-square"></rect><defs data-v-fde0c5aa=""><!----></defs><g data-v-fde0c5aa="" id="9d78b795-ec51-4c1c-b664-f1331b4b0d43" fill="#000000" transform="matrix(1.7422632406689864,0,0,1.7422632406689864,100.05152159425558,122.09824586674684)"><path d="M8.91 15.39L8.91 15.39L8.91 15.39Q8.15 15.87 7.42 16.16L7.42 16.16L7.42 16.16Q6.70 16.45 5.97 16.61L5.97 16.61L5.97 16.61Q5.24 16.76 4.48 16.80L4.48 16.80L4.48 16.80Q3.72 16.83 2.90 16.80L2.90 16.80L2.90 16.80Q2.63 16.79 2.43 16.78L2.43 16.78L2.43 16.78Q2.22 16.76 2.09 16.68L2.09 16.68L2.09 16.68Q1.96 16.60 1.89 16.43L1.89 16.43L1.89 16.43Q1.82 16.25 1.82 15.91L1.82 15.91L1.82 15.91Q1.82 15.74 1.82 15.32L1.82 15.32L1.82 15.32Q1.83 14.90 1.83 14.31L1.83 14.31L1.83 14.31Q1.83 13.73 1.84 13.03L1.84 13.03L1.84 13.03Q1.85 12.34 1.85 11.63L1.85 11.63L1.85 11.63Q1.86 10.92 1.87 10.24L1.87 10.24L1.87 10.24Q1.87 9.56 1.88 9.00L1.88 9.00L1.88 9.00Q1.89 8.45 1.89 8.07L1.89 8.07L1.89 8.07Q1.90 7.69 1.91 7.58L1.91 7.58L1.91 7.58Q1.91 7.46 1.86 7.38L1.86 7.38L1.86 7.38Q1.80 7.29 1.70 7.24L1.70 7.24L1.70 7.24Q1.60 7.19 1.46 7.17L1.46 7.17L1.46 7.17Q1.33 7.15 1.18 7.15L1.18 7.15L1.18 7.15Q0.94 7.15 0.66 7.19L0.66 7.19L0.66 7.19Q0.38 7.24 0.14 7.30L0.14 7.30L0.14 7.30Q0.49 7.08 0.82 6.88L0.82 6.88L0.82 6.88Q1.16 6.69 1.50 6.55L1.50 6.55L1.50 6.55Q1.85 6.41 2.20 6.32L2.20 6.32L2.20 6.32Q2.56 6.24 2.94 6.24L2.94 6.24L2.94 6.24Q3.09 6.24 3.23 6.26L3.23 6.26L3.23 6.26Q3.36 6.28 3.47 6.31L3.47 6.31L3.47 6.31Q3.57 6.35 3.63 6.42L3.63 6.42L3.63 6.42Q3.69 6.48 3.68 6.58L3.68 6.58L3.68 6.58Q3.68 6.84 3.67 7.88L3.67 7.88L3.67 7.88Q3.66 8.32 3.66 8.98L3.66 8.98L3.66 8.98Q3.65 9.63 3.64 10.56L3.64 10.56L3.64 10.56Q3.63 11.49 3.62 12.73L3.62 12.73L3.62 12.73Q3.61 13.96 3.60 15.55L3.60 15.55L3.60 15.55Q4.24 15.63 4.81 15.66L4.81 15.66L4.81 15.66Q5.37 15.69 5.88 15.69L5.88 15.69L5.88 15.69Q6.59 15.69 7.15 15.64L7.15 15.64L7.15 15.64Q7.71 15.60 8.10 15.54L8.10 15.54L8.10 15.54Q8.56 15.48 8.91 15.39ZM12.33 3.77L12.33 3.77L12.33 3.77Q12.33 3.97 12.33 4.15L12.33 4.15L12.33 4.15Q12.34 4.33 12.34 4.50L12.34 4.50L12.34 4.50Q12.34 4.91 12.27 5.20L12.27 5.20L12.27 5.20Q12.20 5.48 11.95 5.65L11.95 5.65L11.95 5.65Q11.80 5.76 11.57 5.91L11.57 5.91L11.57 5.91Q11.20 6.15 10.36 6.66L10.36 6.66L10.36 6.66Q10.45 6.44 10.48 6.13L10.48 6.13L10.48 6.13Q10.52 5.82 10.53 5.54L10.53 5.54L10.53 5.54Q10.55 5.21 10.53 4.85L10.53 4.85L10.53 4.85Q10.96 4.63 11.29 4.43L11.29 4.43L11.29 4.43Q11.62 4.24 11.85 4.09L11.85 4.09L11.85 4.09Q12.13 3.92 12.33 3.77ZM14.73 15.42L14.73 15.42L14.73 15.42Q13.95 15.93 13.41 16.23L13.41 16.23L13.41 16.23Q12.87 16.52 12.48 16.67L12.48 16.67L12.48 16.67Q12.09 16.81 11.82 16.83L11.82 16.83L11.82 16.83Q11.55 16.85 11.33 16.81L11.33 16.81L11.33 16.81Q11.14 16.78 10.94 16.71L10.94 16.71L10.94 16.71Q10.75 16.64 10.60 16.46L10.60 16.46L10.60 16.46Q10.45 16.28 10.35 15.93L10.35 15.93L10.35 15.93Q10.25 15.59 10.25 15.00L10.25 15.00L10.25 15.00Q10.25 14.51 10.28 14.03L10.28 14.03L10.28 14.03Q10.31 13.55 10.34 13.07L10.34 13.07L10.34 13.07Q10.37 12.60 10.39 12.13L10.39 12.13L10.39 12.13Q10.40 11.66 10.39 11.20L10.39 11.20L10.39 11.20Q10.38 10.75 10.23 10.54L10.23 10.54L10.23 10.54Q10.08 10.33 9.78 10.33L9.78 10.33L9.78 10.33Q9.66 10.33 9.52 10.36L9.52 10.36L9.52 10.36Q9.39 10.38 9.23 10.44L9.23 10.44L9.23 10.44Q9.47 10.27 9.73 10.09L9.73 10.09L9.73 10.09Q9.99 9.92 10.26 9.78L10.26 9.78L10.26 9.78Q10.53 9.65 10.80 9.56L10.80 9.56L10.80 9.56Q11.07 9.47 11.33 9.47L11.33 9.47L11.33 9.47Q11.62 9.47 11.84 9.60L11.84 9.60L11.84 9.60Q12.05 9.73 12.11 10.04L12.11 10.04L12.11 10.04Q12.13 10.15 12.14 10.38L12.14 10.38L12.14 10.38Q12.15 10.60 12.15 10.90L12.15 10.90L12.15 10.90Q12.15 11.35 12.14 11.89L12.14 11.89L12.14 11.89Q12.12 12.43 12.10 12.95L12.10 12.95L12.10 12.95Q12.08 13.47 12.06 13.91L12.06 13.91L12.06 13.91Q12.04 14.36 12.03 14.59L12.03 14.59L12.03 14.59Q12.02 14.82 12.11 15.05L12.11 15.05L12.11 15.05Q12.20 15.27 12.38 15.45L12.38 15.45L12.38 15.45Q12.55 15.63 12.81 15.75L12.81 15.75L12.81 15.75Q13.06 15.86 13.39 15.86L13.39 15.86L13.39 15.86Q13.68 15.86 14.01 15.76L14.01 15.76L14.01 15.76Q14.35 15.65 14.73 15.42ZM21.14 9.04L21.14 9.04L21.14 9.04Q20.70 9.35 20.24 9.57L20.24 9.57L20.24 9.57Q19.78 9.79 19.30 9.93L19.30 9.93L19.30 9.93Q18.83 10.08 18.34 10.15L18.34 10.15L18.34 10.15Q17.85 10.23 17.35 10.27L17.35 10.27L17.35 10.27Q17.34 10.82 17.34 11.39L17.34 11.39L17.34 11.39Q17.34 11.96 17.34 12.49L17.34 12.49L17.34 12.49Q17.34 13.03 17.34 13.51L17.34 13.51L17.34 13.51Q17.34 13.99 17.34 14.36L17.34 14.36L17.34 14.36Q17.34 14.74 17.34 14.99L17.34 14.99L17.34 14.99Q17.34 15.24 17.34 15.33L17.34 15.33L17.34 15.33Q17.34 15.65 17.47 15.75L17.47 15.75L17.47 15.75Q17.60 15.85 17.86 15.85L17.86 15.85L17.86 15.85Q18.28 15.85 18.68 15.74L18.68 15.74L18.68 15.74Q19.07 15.63 19.44 15.49L19.44 15.49L19.44 15.49Q19.13 15.78 18.77 16.04L18.77 16.04L18.77 16.04Q18.42 16.31 18.03 16.51L18.03 16.51L18.03 16.51Q17.65 16.71 17.25 16.83L17.25 16.83L17.25 16.83Q16.85 16.95 16.45 16.95L16.45 16.95L16.45 16.95Q16.02 16.95 15.80 16.75L15.80 16.75L15.80 16.75Q15.59 16.55 15.59 16.28L15.59 16.28L15.59 10.32L15.59 10.32Q15.27 10.32 14.92 10.31L14.92 10.31L14.92 10.31Q14.57 10.29 14.18 10.27L14.18 10.27L14.18 10.27Q14.38 10.15 14.54 10.04L14.54 10.04L14.54 10.04Q14.71 9.92 14.83 9.82L14.83 9.82L14.83 9.82Q14.98 9.71 15.10 9.61L15.10 9.61L15.10 9.61Q15.18 9.53 15.27 9.41L15.27 9.41L15.27 9.41Q15.35 9.30 15.44 9.15L15.44 9.15L15.44 9.15Q15.52 8.99 15.62 8.77L15.62 8.77L15.62 8.77Q15.66 8.13 15.77 7.53L15.77 7.53L15.77 7.53Q15.88 6.92 16.09 6.39L16.09 6.39L16.09 6.39Q16.28 5.92 16.60 5.51L16.60 5.51L16.60 5.51Q16.92 5.11 17.34 4.78L17.34 4.78L17.34 4.78Q17.75 4.45 18.24 4.20L18.24 4.20L18.24 4.20Q18.72 3.94 19.23 3.77L19.23 3.77L19.23 3.77Q19.74 3.60 20.25 3.51L20.25 3.51L20.25 3.51Q20.76 3.42 21.22 3.42L21.22 3.42L21.22 3.42Q21.50 3.42 21.76 3.45L21.76 3.45L21.76 3.45Q22.01 3.47 22.22 3.51L22.22 3.51L22.22 3.51Q22.44 3.55 22.60 3.61L22.60 3.61L22.60 3.61Q22.76 3.66 22.87 3.71L22.87 3.71L22.87 3.71Q23.11 3.84 23.11 4.00L23.11 4.00L23.11 4.00Q23.11 4.12 23.00 4.25L23.00 4.25L23.00 4.25Q22.90 4.38 22.74 4.52L22.74 4.52L22.74 4.52Q22.58 4.65 22.38 4.78L22.38 4.78L22.38 4.78Q22.18 4.91 22.00 5.02L22.00 5.02L22.00 5.02Q21.81 5.13 21.66 5.21L21.66 5.21L21.66 5.21Q21.51 5.28 21.44 5.32L21.44 5.32L21.44 5.32Q21.53 5.24 21.56 5.17L21.56 5.17L21.56 5.17Q21.59 5.10 21.59 5.04L21.59 5.04L21.59 5.04Q21.59 4.83 21.42 4.68L21.42 4.68L21.42 4.68Q21.25 4.54 20.97 4.45L20.97 4.45L20.97 4.45Q20.69 4.36 20.32 4.33L20.32 4.33L20.32 4.33Q19.95 4.29 19.56 4.29L19.56 4.29L19.56 4.29Q19.23 4.29 18.95 4.33L18.95 4.33L18.95 4.33Q18.67 4.36 18.55 4.45L18.55 4.45L18.55 4.45Q18.39 4.55 18.21 4.79L18.21 4.79L18.21 4.79Q18.03 5.02 17.87 5.35L17.87 5.35L17.87 5.35Q17.71 5.69 17.59 6.10L17.59 6.10L17.59 6.10Q17.47 6.52 17.44 6.99L17.44 6.99L17.44 6.99Q17.42 7.28 17.40 7.87L17.40 7.87L17.40 7.87Q17.38 8.46 17.37 9.24L17.37 9.24L17.37 9.24Q17.60 9.25 17.82 9.25L17.82 9.25L17.82 9.25Q18.04 9.25 18.25 9.25L18.25 9.25L18.25 9.25Q18.90 9.25 19.43 9.22L19.43 9.22L19.43 9.22Q19.96 9.19 20.34 9.15L20.34 9.15L20.34 9.15Q20.79 9.10 21.14 9.04ZM25.13 11.66L30.14 10.02L30.14 10.02Q29.35 10.40 28.68 10.70L28.68 10.70L28.68 10.70Q28.01 11.00 27.49 11.20L27.49 11.20L27.49 11.20Q26.90 11.44 26.40 11.63L26.40 11.63L26.40 11.63Q26.09 11.76 25.72 11.89L25.72 11.89L25.72 11.89Q25.35 12.02 24.94 12.15L24.94 12.15L24.94 12.15Q24.54 12.28 24.12 12.40L24.12 12.40L24.12 12.40Q23.70 12.53 23.29 12.65L23.29 12.65L23.29 12.79L23.29 12.79Q23.29 13.49 23.51 14.05L23.51 14.05L23.51 14.05Q23.73 14.62 24.13 15.01L24.13 15.01L24.13 15.01Q24.53 15.40 25.08 15.61L25.08 15.61L25.08 15.61Q25.63 15.82 26.30 15.82L26.30 15.82L26.30 15.82Q26.65 15.82 27.00 15.76L27.00 15.76L27.00 15.76Q27.34 15.71 27.65 15.62L27.65 15.62L27.65 15.62Q27.97 15.52 28.24 15.39L28.24 15.39L28.24 15.39Q28.51 15.26 28.72 15.11L28.72 15.11L28.72 15.11Q28.21 15.58 27.65 15.89L27.65 15.89L27.65 15.89Q27.10 16.21 26.55 16.40L26.55 16.40L26.55 16.40Q26.00 16.60 25.47 16.69L25.47 16.69L25.47 16.69Q24.93 16.78 24.44 16.78L24.44 16.78L24.44 16.78Q23.94 16.80 23.46 16.63L23.46 16.63L23.46 16.63Q22.98 16.46 22.58 16.12L22.58 16.12L22.58 16.12Q22.18 15.78 21.91 15.27L21.91 15.27L21.91 15.27Q21.64 14.76 21.55 14.08L21.55 14.08L21.55 14.08Q21.52 13.84 21.52 13.62L21.52 13.62L21.52 13.62Q21.53 13.40 21.57 13.18L21.57 13.18L21.57 13.18Q21.33 13.27 21.13 13.34L21.13 13.34L21.13 13.34Q20.94 13.42 20.82 13.49L20.82 13.49L20.82 13.49Q21.01 13.36 21.21 13.24L21.21 13.24L21.21 13.24Q21.41 13.12 21.60 13.02L21.60 13.02L21.60 13.02Q21.72 12.48 22.00 12.00L22.00 12.00L22.00 12.00Q22.29 11.51 22.69 11.09L22.69 11.09L22.69 11.09Q23.08 10.68 23.58 10.34L23.58 10.34L23.58 10.34Q24.07 10.00 24.60 9.76L24.60 9.76L24.60 9.76Q25.13 9.52 25.68 9.39L25.68 9.39L25.68 9.39Q26.22 9.26 26.74 9.26L26.74 9.26L26.74 9.26Q27.08 9.26 27.31 9.37L27.31 9.37L27.31 9.37Q27.55 9.47 27.63 9.73L27.63 9.73L27.63 9.73Q27.67 10.00 27.43 10.32L27.43 10.32L27.43 10.32Q27.33 10.45 27.16 10.61L27.16 10.61L27.16 10.61Q26.98 10.76 26.70 10.93L26.70 10.93L26.70 10.93Q26.43 11.10 26.04 11.29L26.04 11.29L26.04 11.29Q25.66 11.47 25.13 11.66L25.13 11.66ZM24.72 11.68L24.72 11.68L24.72 11.68Q25.01 11.55 25.25 11.40L25.25 11.40L25.25 11.40Q25.48 11.25 25.62 11.09L25.62 11.09L25.62 11.09Q25.75 10.92 25.76 10.75L25.76 10.75L25.76 10.75Q25.76 10.57 25.61 10.37L25.61 10.37L25.61 10.37Q25.51 10.22 25.33 10.16L25.33 10.16L25.33 10.16Q25.15 10.10 24.96 10.10L24.96 10.10L24.96 10.10Q24.78 10.10 24.62 10.14L24.62 10.14L24.62 10.14Q24.45 10.18 24.33 10.24L24.33 10.24L24.33 10.24Q24.25 10.29 24.10 10.45L24.10 10.45L24.10 10.45Q23.96 10.61 23.81 10.87L23.81 10.87L23.81 10.87Q23.66 11.12 23.53 11.46L23.53 11.46L23.53 11.46Q23.39 11.80 23.33 12.20L23.33 12.20L23.33 12.20Q23.76 12.04 24.11 11.92L24.11 11.92L24.11 11.92Q24.46 11.80 24.72 11.68ZM34.58 15.65L34.58 15.65L34.58 15.65Q34.17 15.92 33.78 16.15L33.78 16.15L33.78 16.15Q33.39 16.38 33.03 16.55L33.03 16.55L33.03 16.55Q32.68 16.72 32.36 16.83L32.36 16.83L32.36 16.83Q32.04 16.93 31.77 16.96L31.77 16.96L31.77 16.96Q31.51 16.99 31.31 16.98L31.31 16.98L31.31 16.98Q31.10 16.98 30.97 16.89L30.97 16.89L30.97 16.89Q30.83 16.80 30.76 16.61L30.76 16.61L30.76 16.61Q30.69 16.42 30.69 16.08L30.69 16.08L30.69 16.08Q30.69 15.91 30.70 15.49L30.70 15.49L30.70 15.49Q30.70 15.07 30.70 14.48L30.70 14.48L30.70 14.48Q30.71 13.90 30.71 13.20L30.71 13.20L30.71 13.20Q30.72 12.51 30.73 11.80L30.73 11.80L30.73 11.80Q30.73 11.09 30.74 10.41L30.74 10.41L30.74 10.41Q30.75 9.73 30.75 9.18L30.75 9.18L30.75 9.18Q30.76 8.63 30.77 8.25L30.77 8.25L30.77 8.25Q30.78 7.88 30.78 7.77L30.78 7.77L30.78 7.77Q30.79 7.53 30.58 7.43L30.58 7.43L30.58 7.43Q30.37 7.33 30.06 7.33L30.06 7.33L30.06 7.33Q29.81 7.33 29.54 7.38L29.54 7.38L29.54 7.38Q29.27 7.42 29.02 7.49L29.02 7.49L29.02 7.49Q29.37 7.25 29.71 7.06L29.71 7.06L29.71 7.06Q30.04 6.86 30.39 6.72L30.39 6.72L30.39 6.72Q30.73 6.58 31.09 6.50L31.09 6.50L31.09 6.50Q31.45 6.42 31.83 6.42L31.83 6.42L31.83 6.42Q31.98 6.42 32.11 6.44L32.11 6.44L32.11 6.44Q32.25 6.45 32.34 6.49L32.34 6.49L32.34 6.49Q32.44 6.53 32.50 6.59L32.50 6.59L32.50 6.59Q32.56 6.65 32.56 6.74L32.56 6.74L32.56 6.74Q32.56 7.01 32.55 8.03L32.55 8.03L32.55 8.03Q32.55 8.47 32.55 9.12L32.55 9.12L32.55 9.12Q32.55 9.77 32.54 10.69L32.54 10.69L32.54 10.69Q32.54 11.61 32.54 12.82L32.54 12.82L32.54 12.82Q32.53 14.04 32.53 15.61L32.53 15.61L32.53 15.61Q32.90 15.68 33.21 15.71L33.21 15.71L33.21 15.71Q33.51 15.73 33.75 15.73L33.75 15.73L33.75 15.73Q33.95 15.73 34.10 15.72L34.10 15.72L34.10 15.72Q34.25 15.70 34.36 15.69L34.36 15.69L34.36 15.69Q34.49 15.67 34.58 15.65ZM37.83 15.78L37.83 15.78L36.20 16.96L36.20 16.96Q36.26 15.64 36.29 14.71L36.29 14.71L36.29 14.71Q36.33 13.78 36.34 13.18L36.34 13.18L36.34 13.18Q36.36 12.48 36.36 12.02L36.36 12.02L36.36 12.02Q36.39 11.19 36.13 10.72L36.13 10.72L36.13 10.72Q35.88 10.25 35.34 10.25L35.34 10.25L35.34 10.25Q35.17 10.25 34.98 10.31L34.98 10.31L34.98 10.31Q34.79 10.36 34.58 10.45L34.58 10.45L34.58 10.45Q34.85 10.26 35.14 10.06L35.14 10.06L35.14 10.06Q35.44 9.86 35.75 9.69L35.75 9.69L35.75 9.69Q36.05 9.53 36.36 9.42L36.36 9.42L36.36 9.42Q36.67 9.32 36.98 9.32L36.98 9.32L36.98 9.32Q37.26 9.32 37.50 9.43L37.50 9.43L37.50 9.43Q37.73 9.55 37.86 9.82L37.86 9.82L37.86 9.82Q37.97 10.06 38.01 10.34L38.01 10.34L38.01 10.34Q38.06 10.63 38.07 10.97L38.07 10.97L38.07 10.97Q38.42 10.60 38.85 10.28L38.85 10.28L38.85 10.28Q39.29 9.96 39.76 9.73L39.76 9.73L39.76 9.73Q40.23 9.51 40.71 9.40L40.71 9.40L40.71 9.40Q41.19 9.29 41.61 9.34L41.61 9.34L41.61 9.34Q41.92 9.39 42.25 9.52L42.25 9.52L42.25 9.52Q42.58 9.65 42.86 9.91L42.86 9.91L42.86 9.91Q43.13 10.18 43.31 10.61L43.31 10.61L43.31 10.61Q43.48 11.05 43.46 11.70L43.46 11.70L43.46 11.70Q43.44 12.46 43.39 13.10L43.39 13.10L43.39 13.10Q43.35 13.74 43.35 14.23L43.35 14.23L43.35 14.23Q43.35 14.53 43.39 14.79L43.39 14.79L43.39 14.79Q43.44 15.05 43.56 15.25L43.56 15.25L43.56 15.25Q43.68 15.44 43.89 15.56L43.89 15.56L43.89 15.56Q44.09 15.67 44.40 15.67L44.40 15.67L44.40 15.67Q44.67 15.67 44.98 15.57L44.98 15.57L44.98 15.57Q45.28 15.46 45.59 15.24L45.59 15.24L45.59 15.24Q45.09 15.69 44.68 15.99L44.68 15.99L44.68 15.99Q44.26 16.29 43.91 16.47L43.91 16.47L43.91 16.47Q43.55 16.66 43.24 16.74L43.24 16.74L43.24 16.74Q42.94 16.82 42.65 16.81L42.65 16.81L42.65 16.81Q42.36 16.80 42.16 16.70L42.16 16.70L42.16 16.70Q41.95 16.59 41.83 16.37L41.83 16.37L41.83 16.37Q41.71 16.15 41.66 15.79L41.66 15.79L41.66 15.79Q41.61 15.44 41.62 14.93L41.62 14.93L41.62 14.93Q41.64 14.48 41.68 13.94L41.68 13.94L41.68 13.94Q41.71 13.39 41.71 12.86L41.71 12.86L41.71 12.86Q41.71 12.25 41.63 11.81L41.63 11.81L41.63 11.81Q41.55 11.38 41.33 11.09L41.33 11.09L41.33 11.09Q41.12 10.81 40.74 10.67L40.74 10.67L40.74 10.67Q40.36 10.53 39.76 10.53L39.76 10.53L39.76 10.53Q39.33 10.53 39.03 10.70L39.03 10.70L39.03 10.70Q38.73 10.87 38.53 11.16L38.53 11.16L38.53 11.16Q38.34 11.44 38.22 11.82L38.22 11.82L38.22 11.82Q38.11 12.20 38.05 12.63L38.05 12.63L38.05 12.63Q37.99 13.06 37.97 13.50L37.97 13.50L37.97 13.50Q37.95 13.95 37.94 14.37L37.94 14.37L37.94 14.37Q37.93 14.79 37.91 15.15L37.91 15.15L37.91 15.15Q37.89 15.52 37.83 15.78ZM50.85 15.76L50.85 15.76L50.85 15.76Q50.58 15.98 50.23 16.23L50.23 16.23L50.23 16.23Q49.89 16.47 49.50 16.67L49.50 16.67L49.50 16.67Q49.11 16.87 48.68 17.00L48.68 17.00L48.68 17.00Q48.25 17.13 47.82 17.13L47.82 17.13L47.82 17.13Q47.69 17.13 47.55 17.10L47.55 17.10L47.55 17.10Q47.42 17.06 47.32 16.98L47.32 16.98L47.32 16.98Q47.22 16.89 47.15 16.75L47.15 16.75L47.15 16.75Q47.09 16.60 47.10 16.39L47.10 16.39L47.10 16.39Q47.10 16.14 47.13 15.12L47.13 15.12L47.13 15.12Q47.13 14.69 47.15 14.05L47.15 14.05L47.15 14.05Q47.17 13.41 47.19 12.50L47.19 12.50L47.19 12.50Q47.22 11.59 47.25 10.38L47.25 10.38L47.25 10.38Q47.28 9.18 47.33 7.62L47.33 7.62L47.33 7.62Q46.87 7.68 46.44 7.72L46.44 7.72L46.44 7.72Q46.01 7.77 45.60 7.81L45.60 7.81L47.35 6.52L47.35 6.52Q47.61 6.56 47.89 6.58L47.89 6.58L47.89 6.58Q48.17 6.59 48.45 6.59L48.45 6.59L48.45 6.59Q48.85 6.59 49.23 6.56L49.23 6.56L49.23 6.56Q49.62 6.54 49.98 6.50L49.98 6.50L49.98 6.50Q50.35 6.46 50.71 6.43L50.71 6.43L50.71 6.43Q51.06 6.41 51.43 6.41L51.43 6.41L51.43 6.41Q52.01 6.41 52.59 6.55L52.59 6.55L52.59 6.55Q53.16 6.70 53.62 7.00L53.62 7.00L53.62 7.00Q54.07 7.31 54.35 7.78L54.35 7.78L54.35 7.78Q54.63 8.24 54.63 8.89L54.63 8.89L54.63 8.89Q54.63 9.37 54.44 9.86L54.44 9.86L54.44 9.86Q54.24 10.35 53.91 10.81L53.91 10.81L53.91 10.81Q53.58 11.27 53.14 11.67L53.14 11.67L53.14 11.67Q52.71 12.07 52.22 12.37L52.22 12.37L52.22 12.37Q51.74 12.67 51.24 12.86L51.24 12.86L51.24 12.86Q50.74 13.04 50.29 13.06L50.29 13.06L50.09 12.92L50.09 12.92Q50.68 12.78 51.19 12.50L51.19 12.50L51.19 12.50Q51.69 12.21 52.06 11.80L52.06 11.80L52.06 11.80Q52.43 11.40 52.64 10.88L52.64 10.88L52.64 10.88Q52.84 10.36 52.84 9.77L52.84 9.77L52.84 9.77Q52.84 9.35 52.72 9.02L52.72 9.02L52.72 9.02Q52.60 8.68 52.38 8.42L52.38 8.42L52.38 8.42Q52.16 8.16 51.87 7.97L51.87 7.97L51.87 7.97Q51.58 7.79 51.24 7.67L51.24 7.67L51.24 7.67Q50.91 7.55 50.55 7.49L50.55 7.49L50.55 7.49Q50.19 7.43 49.83 7.43L49.83 7.43L49.83 7.43Q49.64 7.43 49.43 7.44L49.43 7.44L49.43 7.44Q49.23 7.44 49.03 7.46L49.03 7.46L48.77 15.76L48.77 15.76Q48.92 15.87 49.14 15.92L49.14 15.92L49.14 15.92Q49.36 15.97 49.59 15.97L49.59 15.97L49.59 15.97Q49.83 15.97 50.05 15.94L50.05 15.94L50.05 15.94Q50.28 15.91 50.46 15.87L50.46 15.87L50.46 15.87Q50.67 15.82 50.85 15.76ZM58.54 3.77L58.54 3.77L58.54 3.77Q58.54 3.97 58.55 4.15L58.55 4.15L58.55 4.15Q58.56 4.33 58.56 4.50L58.56 4.50L58.56 4.50Q58.56 4.91 58.49 5.20L58.49 5.20L58.49 5.20Q58.42 5.48 58.17 5.65L58.17 5.65L58.17 5.65Q58.02 5.76 57.79 5.91L57.79 5.91L57.79 5.91Q57.42 6.15 56.58 6.66L56.58 6.66L56.58 6.66Q56.66 6.44 56.70 6.13L56.70 6.13L56.70 6.13Q56.74 5.82 56.75 5.54L56.75 5.54L56.75 5.54Q56.77 5.21 56.75 4.85L56.75 4.85L56.75 4.85Q57.18 4.63 57.51 4.43L57.51 4.43L57.51 4.43Q57.84 4.24 58.07 4.09L58.07 4.09L58.07 4.09Q58.34 3.92 58.54 3.77ZM60.95 15.42L60.95 15.42L60.95 15.42Q60.17 15.93 59.63 16.23L59.63 16.23L59.63 16.23Q59.08 16.52 58.69 16.67L58.69 16.67L58.69 16.67Q58.30 16.81 58.04 16.83L58.04 16.83L58.04 16.83Q57.77 16.85 57.55 16.81L57.55 16.81L57.55 16.81Q57.35 16.78 57.16 16.71L57.16 16.71L57.16 16.71Q56.97 16.64 56.82 16.46L56.82 16.46L56.82 16.46Q56.66 16.28 56.57 15.93L56.57 15.93L56.57 15.93Q56.47 15.59 56.47 15.00L56.47 15.00L56.47 15.00Q56.47 14.51 56.50 14.03L56.50 14.03L56.50 14.03Q56.53 13.55 56.56 13.07L56.56 13.07L56.56 13.07Q56.59 12.60 56.60 12.13L56.60 12.13L56.60 12.13Q56.62 11.66 56.61 11.20L56.61 11.20L56.61 11.20Q56.59 10.75 56.44 10.54L56.44 10.54L56.44 10.54Q56.29 10.33 55.99 10.33L55.99 10.33L55.99 10.33Q55.88 10.33 55.74 10.36L55.74 10.36L55.74 10.36Q55.60 10.38 55.45 10.44L55.45 10.44L55.45 10.44Q55.69 10.27 55.95 10.09L55.95 10.09L55.95 10.09Q56.21 9.92 56.48 9.78L56.48 9.78L56.48 9.78Q56.75 9.65 57.02 9.56L57.02 9.56L57.02 9.56Q57.29 9.47 57.55 9.47L57.55 9.47L57.55 9.47Q57.84 9.47 58.05 9.60L58.05 9.60L58.05 9.60Q58.27 9.73 58.33 10.04L58.33 10.04L58.33 10.04Q58.35 10.15 58.36 10.38L58.36 10.38L58.36 10.38Q58.37 10.60 58.37 10.90L58.37 10.90L58.37 10.90Q58.37 11.35 58.35 11.89L58.35 11.89L58.35 11.89Q58.34 12.43 58.32 12.95L58.32 12.95L58.32 12.95Q58.30 13.47 58.28 13.91L58.28 13.91L58.28 13.91Q58.26 14.36 58.25 14.59L58.25 14.59L58.25 14.59Q58.24 14.82 58.33 15.05L58.33 15.05L58.33 15.05Q58.42 15.27 58.59 15.45L58.59 15.45L58.59 15.45Q58.77 15.63 59.02 15.75L59.02 15.75L59.02 15.75Q59.28 15.86 59.61 15.86L59.61 15.86L59.61 15.86Q59.90 15.86 60.23 15.76L60.23 15.76L60.23 15.76Q60.57 15.65 60.95 15.42ZM64.78 11.66L69.79 10.02L69.79 10.02Q69.00 10.40 68.33 10.70L68.33 10.70L68.33 10.70Q67.66 11.00 67.14 11.20L67.14 11.20L67.14 11.20Q66.55 11.44 66.05 11.63L66.05 11.63L66.05 11.63Q65.74 11.76 65.37 11.89L65.37 11.89L65.37 11.89Q65.00 12.02 64.59 12.15L64.59 12.15L64.59 12.15Q64.19 12.28 63.77 12.40L63.77 12.40L63.77 12.40Q63.35 12.53 62.94 12.65L62.94 12.65L62.94 12.79L62.94 12.79Q62.94 13.49 63.16 14.05L63.16 14.05L63.16 14.05Q63.38 14.62 63.78 15.01L63.78 15.01L63.78 15.01Q64.18 15.40 64.73 15.61L64.73 15.61L64.73 15.61Q65.28 15.82 65.95 15.82L65.95 15.82L65.95 15.82Q66.30 15.82 66.65 15.76L66.65 15.76L66.65 15.76Q66.99 15.71 67.30 15.62L67.30 15.62L67.30 15.62Q67.61 15.52 67.89 15.39L67.89 15.39L67.89 15.39Q68.16 15.26 68.37 15.11L68.37 15.11L68.37 15.11Q67.85 15.58 67.30 15.89L67.30 15.89L67.30 15.89Q66.75 16.21 66.20 16.40L66.20 16.40L66.20 16.40Q65.65 16.60 65.12 16.69L65.12 16.69L65.12 16.69Q64.58 16.78 64.09 16.78L64.09 16.78L64.09 16.78Q63.59 16.80 63.11 16.63L63.11 16.63L63.11 16.63Q62.62 16.46 62.23 16.12L62.23 16.12L62.23 16.12Q61.83 15.78 61.56 15.27L61.56 15.27L61.56 15.27Q61.28 14.76 61.20 14.08L61.20 14.08L61.20 14.08Q61.17 13.84 61.17 13.62L61.17 13.62L61.17 13.62Q61.17 13.40 61.22 13.18L61.22 13.18L61.22 13.18Q60.98 13.27 60.78 13.34L60.78 13.34L60.78 13.34Q60.59 13.42 60.46 13.49L60.46 13.49L60.46 13.49Q60.66 13.36 60.86 13.24L60.86 13.24L60.86 13.24Q61.06 13.12 61.25 13.02L61.25 13.02L61.25 13.02Q61.37 12.48 61.65 12.00L61.65 12.00L61.65 12.00Q61.93 11.51 62.33 11.09L62.33 11.09L62.33 11.09Q62.73 10.68 63.23 10.34L63.23 10.34L63.23 10.34Q63.72 10.00 64.25 9.76L64.25 9.76L64.25 9.76Q64.78 9.52 65.32 9.39L65.32 9.39L65.32 9.39Q65.87 9.26 66.38 9.26L66.38 9.26L66.38 9.26Q66.73 9.26 66.96 9.37L66.96 9.37L66.96 9.37Q67.20 9.47 67.28 9.73L67.28 9.73L67.28 9.73Q67.32 10.00 67.08 10.32L67.08 10.32L67.08 10.32Q66.98 10.45 66.80 10.61L66.80 10.61L66.80 10.61Q66.63 10.76 66.35 10.93L66.35 10.93L66.35 10.93Q66.08 11.10 65.69 11.29L65.69 11.29L65.69 11.29Q65.30 11.47 64.78 11.66L64.78 11.66ZM64.37 11.68L64.37 11.68L64.37 11.68Q64.66 11.55 64.90 11.40L64.90 11.40L64.90 11.40Q65.13 11.25 65.27 11.09L65.27 11.09L65.27 11.09Q65.40 10.92 65.41 10.75L65.41 10.75L65.41 10.75Q65.41 10.57 65.26 10.37L65.26 10.37L65.26 10.37Q65.16 10.22 64.98 10.16L64.98 10.16L64.98 10.16Q64.80 10.10 64.61 10.10L64.61 10.10L64.61 10.10Q64.43 10.10 64.26 10.14L64.26 10.14L64.26 10.14Q64.10 10.18 63.98 10.24L63.98 10.24L63.98 10.24Q63.90 10.29 63.75 10.45L63.75 10.45L63.75 10.45Q63.61 10.61 63.46 10.87L63.46 10.87L63.46 10.87Q63.31 11.12 63.17 11.46L63.17 11.46L63.17 11.46Q63.04 11.80 62.98 12.20L62.98 12.20L62.98 12.20Q63.41 12.04 63.76 11.92L63.76 11.92L63.76 11.92Q64.11 11.80 64.37 11.68ZM76.34 15.03L76.34 15.03L76.34 15.03Q76.05 15.29 75.63 15.57L75.63 15.57L75.63 15.57Q75.21 15.86 74.70 16.11L74.70 16.11L74.70 16.11Q74.19 16.36 73.62 16.53L73.62 16.53L73.62 16.53Q73.04 16.70 72.45 16.71L72.45 16.71L72.45 16.71Q72.11 16.73 71.73 16.66L71.73 16.66L71.73 16.66Q71.35 16.58 70.98 16.43L70.98 16.43L70.98 16.43Q70.62 16.27 70.28 16.03L70.28 16.03L70.28 16.03Q69.95 15.78 69.70 15.44L69.70 15.44L69.70 15.44Q69.45 15.09 69.30 14.65L69.30 14.65L69.30 14.65Q69.15 14.21 69.15 13.66L69.15 13.66L69.15 13.66Q69.15 12.98 69.38 12.40L69.38 12.40L69.38 12.40Q69.60 11.81 69.99 11.33L69.99 11.33L69.99 11.33Q70.37 10.85 70.89 10.48L70.89 10.48L70.89 10.48Q71.41 10.10 72.00 9.85L72.00 9.85L72.00 9.85Q72.58 9.60 73.21 9.46L73.21 9.46L73.21 9.46Q73.84 9.33 74.44 9.33L74.44 9.33L74.44 9.33Q74.52 9.33 74.68 9.33L74.68 9.33L74.68 9.33Q74.83 9.34 75.02 9.35L75.02 9.35L75.02 9.35Q75.22 9.37 75.42 9.40L75.42 9.40L75.42 9.40Q75.62 9.43 75.79 9.47L75.79 9.47L75.79 9.47Q75.95 9.52 76.06 9.59L76.06 9.59L76.06 9.59Q76.17 9.67 76.17 9.77L76.17 9.77L76.17 9.77Q76.17 9.88 76.05 9.99L76.05 9.99L76.05 9.99Q75.93 10.10 75.78 10.20L75.78 10.20L75.78 10.20Q75.65 10.28 75.46 10.40L75.46 10.40L75.46 10.40Q75.28 10.49 75.02 10.64L75.02 10.64L75.02 10.64Q74.76 10.79 74.38 11.00L74.38 11.00L74.38 11.00Q74.50 10.78 74.42 10.63L74.42 10.63L74.42 10.63Q74.33 10.48 74.12 10.39L74.12 10.39L74.12 10.39Q73.90 10.29 73.60 10.25L73.60 10.25L73.60 10.25Q73.29 10.21 72.97 10.21L72.97 10.21L72.97 10.21Q72.76 10.21 72.56 10.23L72.56 10.23L72.56 10.23Q72.36 10.25 72.18 10.27L72.18 10.27L72.18 10.27Q72.01 10.29 71.88 10.33L71.88 10.33L71.88 10.33Q71.74 10.36 71.66 10.40L71.66 10.40L71.66 10.40Q71.53 10.45 71.39 10.67L71.39 10.67L71.39 10.67Q71.26 10.90 71.15 11.22L71.15 11.22L71.15 11.22Q71.03 11.54 70.96 11.94L70.96 11.94L70.96 11.94Q70.89 12.33 70.89 12.74L70.89 12.74L70.89 12.74Q70.89 13.35 71.12 13.88L71.12 13.88L71.12 13.88Q71.35 14.42 71.75 14.81L71.75 14.81L71.75 14.81Q72.15 15.21 72.69 15.44L72.69 15.44L72.69 15.44Q73.22 15.66 73.81 15.66L73.81 15.66L73.81 15.66Q74.46 15.66 75.10 15.47L75.10 15.47L75.10 15.47Q75.74 15.29 76.34 15.03ZM81.13 11.66L86.14 10.02L86.14 10.02Q85.35 10.40 84.68 10.70L84.68 10.70L84.68 10.70Q84.01 11.00 83.49 11.20L83.49 11.20L83.49 11.20Q82.90 11.44 82.40 11.63L82.40 11.63L82.40 11.63Q82.09 11.76 81.72 11.89L81.72 11.89L81.72 11.89Q81.35 12.02 80.94 12.15L80.94 12.15L80.94 12.15Q80.54 12.28 80.12 12.40L80.12 12.40L80.12 12.40Q79.70 12.53 79.29 12.65L79.29 12.65L79.29 12.79L79.29 12.79Q79.29 13.49 79.51 14.05L79.51 14.05L79.51 14.05Q79.73 14.62 80.13 15.01L80.13 15.01L80.13 15.01Q80.53 15.40 81.08 15.61L81.08 15.61L81.08 15.61Q81.63 15.82 82.30 15.82L82.30 15.82L82.30 15.82Q82.65 15.82 83.00 15.76L83.00 15.76L83.00 15.76Q83.34 15.71 83.65 15.62L83.65 15.62L83.65 15.62Q83.97 15.52 84.24 15.39L84.24 15.39L84.24 15.39Q84.51 15.26 84.72 15.11L84.72 15.11L84.72 15.11Q84.21 15.58 83.65 15.89L83.65 15.89L83.65 15.89Q83.10 16.21 82.55 16.40L82.55 16.40L82.55 16.40Q82.00 16.60 81.47 16.69L81.47 16.69L81.47 16.69Q80.93 16.78 80.44 16.78L80.44 16.78L80.44 16.78Q79.94 16.80 79.46 16.63L79.46 16.63L79.46 16.63Q78.98 16.46 78.58 16.12L78.58 16.12L78.58 16.12Q78.18 15.78 77.91 15.27L77.91 15.27L77.91 15.27Q77.64 14.76 77.55 14.08L77.55 14.08L77.55 14.08Q77.52 13.84 77.52 13.62L77.52 13.62L77.52 13.62Q77.53 13.40 77.57 13.18L77.57 13.18L77.57 13.18Q77.33 13.27 77.13 13.34L77.13 13.34L77.13 13.34Q76.94 13.42 76.82 13.49L76.82 13.49L76.82 13.49Q77.01 13.36 77.21 13.24L77.21 13.24L77.21 13.24Q77.41 13.12 77.60 13.02L77.60 13.02L77.60 13.02Q77.72 12.48 78.00 12.00L78.00 12.00L78.00 12.00Q78.29 11.51 78.69 11.09L78.69 11.09L78.69 11.09Q79.08 10.68 79.58 10.34L79.58 10.34L79.58 10.34Q80.07 10.00 80.60 9.76L80.60 9.76L80.60 9.76Q81.13 9.52 81.68 9.39L81.68 9.39L81.68 9.39Q82.22 9.26 82.74 9.26L82.74 9.26L82.74 9.26Q83.08 9.26 83.31 9.37L83.31 9.37L83.31 9.37Q83.55 9.47 83.63 9.73L83.63 9.73L83.63 9.73Q83.67 10.00 83.43 10.32L83.43 10.32L83.43 10.32Q83.33 10.45 83.16 10.61L83.16 10.61L83.16 10.61Q82.98 10.76 82.70 10.93L82.70 10.93L82.70 10.93Q82.43 11.10 82.04 11.29L82.04 11.29L82.04 11.29Q81.66 11.47 81.13 11.66L81.13 11.66ZM80.72 11.68L80.72 11.68L80.72 11.68Q81.01 11.55 81.25 11.40L81.25 11.40L81.25 11.40Q81.48 11.25 81.62 11.09L81.62 11.09L81.62 11.09Q81.75 10.92 81.76 10.75L81.76 10.75L81.76 10.75Q81.76 10.57 81.61 10.37L81.61 10.37L81.61 10.37Q81.51 10.22 81.33 10.16L81.33 10.16L81.33 10.16Q81.15 10.10 80.96 10.10L80.96 10.10L80.96 10.10Q80.78 10.10 80.62 10.14L80.62 10.14L80.62 10.14Q80.45 10.18 80.33 10.24L80.33 10.24L80.33 10.24Q80.25 10.29 80.10 10.45L80.10 10.45L80.10 10.45Q79.96 10.61 79.81 10.87L79.81 10.87L79.81 10.87Q79.66 11.12 79.53 11.46L79.53 11.46L79.53 11.46Q79.39 11.80 79.33 12.20L79.33 12.20L79.33 12.20Q79.76 12.04 80.11 11.92L80.11 11.92L80.11 11.92Q80.46 11.80 80.72 11.68ZM91.79 13.79L91.79 13.79L91.79 13.79Q91.79 14.26 91.54 14.67L91.54 14.67L91.54 14.67Q91.29 15.07 90.89 15.42L90.89 15.42L90.89 15.42Q90.49 15.76 89.98 16.02L89.98 16.02L89.98 16.02Q89.47 16.28 88.94 16.45L88.94 16.45L88.94 16.45Q88.42 16.63 87.92 16.71L87.92 16.71L87.92 16.71Q87.43 16.80 87.06 16.77L87.06 16.77L87.06 16.77Q86.74 16.75 86.39 16.67L86.39 16.67L86.39 16.67Q86.04 16.58 85.77 16.46L85.77 16.46L85.77 16.46Q85.50 16.34 85.36 16.19L85.36 16.19L85.36 16.19Q85.23 16.05 85.35 15.91L85.35 15.91L85.35 15.91Q85.48 15.78 85.62 15.65L85.62 15.65L85.62 15.65Q85.76 15.52 85.96 15.38L85.96 15.38L85.96 15.38Q86.16 15.24 86.43 15.09L86.43 15.09L86.43 15.09Q86.71 14.93 87.09 14.74L87.09 14.74L87.09 14.74Q86.97 14.93 87.03 15.07L87.03 15.07L87.03 15.07Q87.09 15.22 87.26 15.33L87.26 15.33L87.26 15.33Q87.42 15.44 87.67 15.52L87.67 15.52L87.67 15.52Q87.91 15.59 88.15 15.64L88.15 15.64L88.15 15.64Q88.38 15.69 88.58 15.71L88.58 15.71L88.58 15.71Q88.77 15.73 88.85 15.73L88.85 15.73L88.85 15.73Q89.10 15.73 89.34 15.71L89.34 15.71L89.34 15.71Q89.58 15.68 89.78 15.60L89.78 15.60L89.78 15.60Q89.97 15.52 90.09 15.36L90.09 15.36L90.09 15.36Q90.21 15.20 90.21 14.92L90.21 14.92L90.21 14.92Q90.21 14.57 90.02 14.33L90.02 14.33L90.02 14.33Q89.83 14.10 89.53 13.94L89.53 13.94L89.53 13.94Q89.22 13.77 88.85 13.68L88.85 13.68L88.85 13.68Q88.47 13.58 88.10 13.52L88.10 13.52L88.10 13.52Q87.73 13.45 87.39 13.41L87.39 13.41L87.39 13.41Q87.06 13.36 86.85 13.31L86.85 13.31L86.85 13.31Q86.51 13.22 86.28 13.07L86.28 13.07L86.28 13.07Q86.05 12.93 85.91 12.75L85.91 12.75L85.91 12.75Q85.77 12.56 85.71 12.36L85.71 12.36L85.71 12.36Q85.65 12.15 85.65 11.95L85.65 11.95L85.65 11.95Q85.65 11.49 85.89 11.10L85.89 11.10L85.89 11.10Q86.14 10.71 86.54 10.40L86.54 10.40L86.54 10.40Q86.93 10.08 87.44 9.84L87.44 9.84L87.44 9.84Q87.94 9.60 88.45 9.44L88.45 9.44L88.45 9.44Q88.97 9.28 89.46 9.19L89.46 9.19L89.46 9.19Q89.94 9.11 90.30 9.11L90.30 9.11L90.30 9.11Q90.71 9.11 91.02 9.16L91.02 9.16L91.02 9.16Q91.34 9.20 91.54 9.26L91.54 9.26L91.54 9.26Q91.73 9.32 91.78 9.42L91.78 9.42L91.78 9.42Q91.83 9.52 91.78 9.64L91.78 9.64L91.78 9.64Q91.73 9.76 91.59 9.91L91.59 9.91L91.59 9.91Q91.44 10.05 91.25 10.20L91.25 10.20L91.25 10.20Q91.09 10.32 90.91 10.43L90.91 10.43L90.91 10.43Q90.75 10.53 90.56 10.63L90.56 10.63L90.56 10.63Q90.37 10.73 90.17 10.80L90.17 10.80L90.17 10.80Q90.27 10.67 90.25 10.57L90.25 10.57L90.25 10.57Q90.23 10.47 90.13 10.38L90.13 10.38L90.13 10.38Q90.02 10.30 89.83 10.24L89.83 10.24L89.83 10.24Q89.65 10.19 89.42 10.15L89.42 10.15L89.42 10.15Q89.20 10.11 88.95 10.09L88.95 10.09L88.95 10.09Q88.70 10.08 88.46 10.08L88.46 10.08L88.46 10.08Q88.22 10.08 87.99 10.09L87.99 10.09L87.99 10.09Q87.76 10.11 87.58 10.18L87.58 10.18L87.58 10.18Q87.39 10.25 87.27 10.40L87.27 10.40L87.27 10.40Q87.16 10.55 87.16 10.81L87.16 10.81L87.16 10.81Q87.16 11.03 87.25 11.26L87.25 11.26L87.25 11.26Q87.35 11.48 87.54 11.69L87.54 11.69L87.54 11.69Q87.73 11.89 88.01 12.04L88.01 12.04L88.01 12.04Q88.29 12.20 88.66 12.27L88.66 12.27L88.66 12.27Q88.94 12.33 89.29 12.35L89.29 12.35L89.29 12.35Q89.64 12.38 89.99 12.42L89.99 12.42L89.99 12.42Q90.34 12.46 90.66 12.54L90.66 12.54L90.66 12.54Q90.99 12.61 91.24 12.76L91.24 12.76L91.24 12.76Q91.49 12.91 91.64 13.16L91.64 13.16L91.64 13.16Q91.79 13.41 91.79 13.79Z"></path></g><defs data-v-fde0c5aa=""><linearGradient data-v-fde0c5aa="" gradientTransform="rotate(25)" id="4a97eff8-4a17-4a47-944f-9e0a2eb1a1b6" x1="0%" y1="0%" x2="100%" y2="0%"><stop data-v-fde0c5aa="" offset="0%" stop-color="#C06D69" stop-opacity="1"></stop><stop data-v-fde0c5aa="" offset="100%" stop-color="#D2B05C" stop-opacity="1"></stop></linearGradient></defs><g data-v-fde0c5aa="" id="dfc07aaa-67a3-4d20-ae7b-d7e96ce9ff04" stroke="none" fill="url(#4a97eff8-4a17-4a47-944f-9e0a2eb1a1b6)" transform="matrix(0.985403784540607,0,0,0.985403784540607,38.02722153125379,124.3795025416985)"><style></style><path d="M16.99 31.475l1.768-5.224a3.009 3.009 0 0 1 2.775-2.038h.002c1.299 0 2.422.77 2.864 1.918l.252.65 1.757-5.348c.408-1.237 1.532-2.067 2.8-2.067h.108l.095.008a3.014 3.014 0 0 1 2.76 2.279l2.72 11.033h9.167c3.217-4.214 5.94-8.833 5.94-14.976 0-8.66-5.75-15.71-12.82-15.71-3.93 0-8.39 4.81-10.08 6.82C25.408 6.81 20.948 2 17.018 2c-7.07 0-12.83 7.05-12.83 15.71 0 5.561 2.232 9.872 5.04 13.765h7.762zM29.626 36.402l-.78-3.167-1.113 3.388a3.008 3.008 0 0 1-2.769 2.062h-.002c-1.31 0-2.433-.77-2.877-1.915l-.324-.834a2.998 2.998 0 0 1-2.62 1.54H13.97c6.305 7.84 12.208 12.154 12.458 12.334.18.13.38.19.59.19.2 0 .4-.06.57-.18.246-.17 5.697-4.055 11.639-11.134H32.54a2.992 2.992 0 0 1-2.914-2.284z"></path><path d="M46.761 34.686H33.323L30.229 22.13a1 1 0 0 0-.933-.76c-.437-.047-.848.263-.988.687l-3.503 10.661-2.272-5.867a1.012 1.012 0 0 0-.954-.639 1 1 0 0 0-.926.68l-2.229 6.583H3.002a1 1 0 1 0 0 2h16.14a1 1 0 0 0 .946-.68l1.576-4.65 2.286 5.902a1 1 0 0 0 .932.64h.027c.422-.013.792-.287.924-.688l3.288-10.007 2.448 9.933a1 1 0 0 0 .97.761h14.222a1 1 0 1 0 0-2z"></path></g><defs data-v-fde0c5aa=""><!----></defs><g data-v-fde0c5aa="" id="e3577e3f-e9d8-4684-89b7-cf26b17d4cce" fill="#000000" transform="matrix(0.5619442459230869,0,0,0.5619442459230869,100.00322745182594,160.7406529720154)"><path d="M3.54 12.41L0.52 12.41L0.52 11.87L0.66 11.87L0.66 11.87Q1.24 11.87 1.36 11.77L1.36 11.77L1.36 11.77Q1.48 11.68 1.50 11.21L1.50 11.21L1.63 4.38L1.63 4.38Q1.63 4.35 1.63 4.28L1.63 4.28L1.63 4.28Q1.64 4.21 1.64 4.17L1.64 4.17L1.64 4.01L1.64 4.01Q1.64 3.76 1.57 3.71L1.57 3.71L1.57 3.71Q1.47 3.64 1.24 3.64L1.24 3.64L0.53 3.64L0.52 3.08L2.63 3.08L5.82 10.55L8.96 3.08L11.20 3.08L11.20 3.64L10.73 3.64L10.73 3.64Q10.27 3.64 10.15 3.71L10.15 3.71L10.15 3.71Q9.99 3.79 9.99 4.08L9.99 4.08L9.99 11.22L9.99 11.22Q9.99 11.68 10.11 11.77L10.11 11.77L10.11 11.77Q10.22 11.87 10.85 11.87L10.85 11.87L11.13 11.87L11.14 12.41L7.75 12.41L7.72 11.87L8.00 11.87L8.00 11.87Q8.62 11.87 8.74 11.77L8.74 11.77L8.74 11.77Q8.86 11.66 8.86 11.25L8.86 11.25L8.86 4.83L6.71 9.91L5.85 12.02L5.85 12.02Q5.71 12.37 5.67 12.44L5.67 12.44L5.67 12.44Q5.63 12.51 5.56 12.51L5.56 12.51L5.56 12.51Q5.46 12.51 5.01 11.52L5.01 11.52L2.20 5.01L2.14 11.39L2.14 11.39Q2.14 11.74 2.34 11.80L2.34 11.80L2.34 11.80Q2.58 11.87 3.54 11.87L3.54 11.87L3.54 12.41ZM18.88 3.64L18.87 3.08L26.08 3.08L26.08 3.08Q26.09 4.14 26.15 5.28L26.15 5.28L25.60 5.30L25.60 5.30Q25.59 4.66 25.53 4.25L25.53 4.25L25.53 4.25Q25.49 3.89 25.44 3.80L25.44 3.80L25.44 3.80Q25.38 3.71 25.27 3.69L25.27 3.69L25.27 3.69Q25.17 3.68 24.58 3.68L24.58 3.68L22.20 3.68L22.20 3.68Q21.66 3.68 21.51 3.77L21.51 3.77L21.51 3.77Q21.39 3.86 21.39 4.33L21.39 4.33L21.39 6.28L21.39 6.28Q21.39 6.69 21.44 6.76L21.44 6.76L21.44 6.76Q21.51 6.84 21.85 6.84L21.85 6.84L23.97 6.84L23.97 6.84Q24.33 6.84 24.41 6.73L24.41 6.73L24.41 6.73Q24.49 6.63 24.50 6.14L24.50 6.14L24.50 5.61L25.01 5.63L25.01 8.97L24.50 8.97L24.50 8.24L24.50 8.24Q24.50 7.66 24.42 7.57L24.42 7.57L24.42 7.57Q24.34 7.46 23.99 7.46L23.99 7.46L21.90 7.46L21.90 7.46Q21.56 7.46 21.48 7.54L21.48 7.54L21.48 7.54Q21.39 7.63 21.39 7.89L21.39 7.89L21.39 11.20L21.39 11.20Q21.39 11.57 21.48 11.67L21.48 11.67L21.48 11.67Q21.56 11.77 21.83 11.77L21.83 11.77L21.83 11.77Q24.75 11.75 25.28 11.69L25.28 11.69L25.28 11.69Q25.80 11.63 25.88 11.38L25.88 11.38L25.89 11.36L25.89 11.35L26.12 10.17L26.60 10.25L26.25 12.41L19.15 12.41L19.15 11.87L19.52 11.87L19.52 11.87Q20.08 11.87 20.16 11.80L20.16 11.80L20.16 11.80Q20.25 11.72 20.25 11.33L20.25 11.33L20.25 4.24L20.25 4.24Q20.25 3.82 20.10 3.73L20.10 3.73L20.10 3.73Q19.93 3.64 19.28 3.64L19.28 3.64L18.88 3.64ZM37.64 12.41L34.62 12.41L34.62 11.87L34.75 11.87L34.75 11.87Q35.34 11.87 35.46 11.77L35.46 11.77L35.46 11.77Q35.58 11.68 35.59 11.21L35.59 11.21L35.72 4.38L35.72 4.38Q35.72 4.35 35.73 4.28L35.73 4.28L35.73 4.28Q35.74 4.21 35.74 4.17L35.74 4.17L35.74 4.01L35.74 4.01Q35.74 3.76 35.66 3.71L35.66 3.71L35.66 3.71Q35.57 3.64 35.34 3.64L35.34 3.64L34.63 3.64L34.62 3.08L36.73 3.08L39.92 10.55L43.06 3.08L45.29 3.08L45.29 3.64L44.82 3.64L44.82 3.64Q44.37 3.64 44.25 3.71L44.25 3.71L44.25 3.71Q44.09 3.79 44.09 4.08L44.09 4.08L44.09 11.22L44.09 11.22Q44.09 11.68 44.20 11.77L44.20 11.77L44.20 11.77Q44.32 11.87 44.95 11.87L44.95 11.87L45.23 11.87L45.24 12.41L41.84 12.41L41.82 11.87L42.10 11.87L42.10 11.87Q42.72 11.87 42.83 11.77L42.83 11.77L42.83 11.77Q42.96 11.66 42.96 11.25L42.96 11.25L42.96 4.83L40.80 9.91L39.95 12.02L39.95 12.02Q39.81 12.37 39.77 12.44L39.77 12.44L39.77 12.44Q39.72 12.51 39.66 12.51L39.66 12.51L39.66 12.51Q39.56 12.51 39.11 11.52L39.11 11.52L36.30 5.01L36.24 11.39L36.24 11.39Q36.24 11.74 36.44 11.80L36.44 11.80L36.44 11.80Q36.67 11.87 37.64 11.87L37.64 11.87L37.64 12.41ZM53.35 7.83L53.35 7.83L53.35 7.83Q53.35 6.62 53.75 5.68L53.75 5.68L53.75 5.68Q54.17 4.72 54.86 4.12L54.86 4.12L54.86 4.12Q55.55 3.51 56.41 3.19L56.41 3.19L56.41 3.19Q57.25 2.88 58.20 2.88L58.20 2.88L58.20 2.88Q59.46 2.88 60.51 3.40L60.51 3.40L60.51 3.40Q61.59 3.93 62.30 5.07L62.30 5.07L62.30 5.07Q63 6.17 63.01 7.75L63.01 7.75L63.01 7.75Q63.01 8.70 62.70 9.54L62.70 9.54L62.70 9.54Q62.39 10.38 61.79 11.10L61.79 11.10L61.79 11.10Q61.18 11.81 60.25 12.22L60.25 12.22L60.25 12.22Q59.28 12.63 58.09 12.64L58.09 12.64L58.09 12.64Q56.96 12.64 56.02 12.23L56.02 12.23L56.02 12.23Q55.08 11.83 54.52 11.14L54.52 11.14L54.52 11.14Q53.95 10.45 53.66 9.60L53.66 9.60L53.66 9.60Q53.35 8.72 53.35 7.83ZM54.61 7.38L54.61 7.38L54.61 7.38Q54.61 8.52 55.04 9.60L55.04 9.60L55.04 9.60Q55.44 10.64 56.37 11.33L56.37 11.33L56.37 11.33Q57.28 12.03 58.47 12.04L58.47 12.04L58.47 12.04Q59.84 12.04 60.78 11.01L60.78 11.01L60.78 11.01Q61.73 9.97 61.73 8.10L61.73 8.10L61.73 8.10Q61.73 5.99 60.57 4.72L60.57 4.72L60.57 4.72Q59.42 3.46 57.91 3.45L57.91 3.45L57.91 3.45Q57.39 3.45 56.84 3.65L56.84 3.65L56.84 3.65Q56.30 3.85 55.79 4.25L55.79 4.25L55.79 4.25Q55.25 4.68 54.93 5.48L54.93 5.48L54.93 5.48Q54.61 6.27 54.61 7.38ZM71.46 3.64L71.07 3.64L71.08 3.08L74.30 3.08L74.30 3.08Q75.43 3.08 76.04 3.21L76.04 3.21L76.04 3.21Q76.68 3.37 77.14 3.75L77.14 3.75L77.14 3.75Q78.15 4.57 78.15 5.71L78.15 5.71L78.15 5.71Q78.15 6.43 77.68 7.04L77.68 7.04L77.68 7.04Q77.18 7.66 76.15 7.92L76.15 7.92L78.84 11.49L78.84 11.49Q79.15 11.87 79.44 11.87L79.44 11.87L80.04 11.87L80.07 12.41L78.04 12.41L75.04 8.10L74.87 8.10L74.87 8.10Q74.83 8.10 74.78 8.11L74.78 8.11L74.78 8.11Q74.72 8.11 74.71 8.11L74.71 8.11L74.71 8.11Q73.83 8.11 73.43 8.03L73.43 8.03L73.43 11.46L73.43 11.46Q73.43 11.76 73.58 11.81L73.58 11.81L73.58 11.81Q73.70 11.87 74.40 11.87L74.40 11.87L75.11 11.87L75.09 12.41L71.36 12.41L71.36 11.87L71.68 11.87L71.68 11.87Q72.15 11.87 72.21 11.81L72.21 11.81L72.21 11.81Q72.30 11.74 72.30 11.46L72.30 11.46L72.30 4.14L72.30 4.14Q72.30 3.82 72.11 3.73L72.11 3.73L72.11 3.73Q71.88 3.64 71.46 3.64L71.46 3.64ZM73.43 4.28L73.43 7.57L73.43 7.57Q73.62 7.70 74.33 7.71L74.33 7.71L74.33 7.71Q75.60 7.71 76.18 7.27L76.18 7.27L76.18 7.27Q76.77 6.84 76.77 5.92L76.77 5.92L76.77 5.92Q76.77 4.92 76.00 4.27L76.00 4.27L76.00 4.27Q75.24 3.64 73.86 3.64L73.86 3.64L73.86 3.64Q73.60 3.64 73.52 3.75L73.52 3.75L73.52 3.75Q73.44 3.84 73.43 4.28L73.43 4.28ZM88.41 3.64L87.82 3.64L87.83 3.08L91.35 3.08L91.35 3.64L91.12 3.64L91.12 3.64Q90.57 3.64 90.40 3.73L90.40 3.73L90.40 3.73Q90.26 3.81 90.26 4.28L90.26 4.28L90.26 11.22L90.26 11.22Q90.26 11.68 90.37 11.77L90.37 11.77L90.37 11.77Q90.48 11.87 91.01 11.87L91.01 11.87L91.56 11.87L91.57 12.41L87.99 12.41L87.98 11.87L88.34 11.87L88.34 11.87Q88.90 11.87 89.01 11.77L89.01 11.77L89.01 11.77Q89.13 11.67 89.13 11.25L89.13 11.25L89.13 4.14L89.13 4.14Q89.13 3.77 89.02 3.71L89.02 3.71L89.02 3.71Q88.92 3.64 88.41 3.64L88.41 3.64ZM99.33 3.64L99.31 3.08L106.52 3.08L106.52 3.08Q106.54 4.14 106.59 5.28L106.59 5.28L106.05 5.30L106.05 5.30Q106.03 4.66 105.98 4.25L105.98 4.25L105.98 4.25Q105.94 3.89 105.88 3.80L105.88 3.80L105.88 3.80Q105.83 3.71 105.71 3.69L105.71 3.69L105.71 3.69Q105.62 3.68 105.03 3.68L105.03 3.68L102.65 3.68L102.65 3.68Q102.10 3.68 101.96 3.77L101.96 3.77L101.96 3.77Q101.83 3.86 101.83 4.33L101.83 4.33L101.83 6.28L101.83 6.28Q101.83 6.69 101.89 6.76L101.89 6.76L101.89 6.76Q101.96 6.84 102.30 6.84L102.30 6.84L104.41 6.84L104.41 6.84Q104.77 6.84 104.86 6.73L104.86 6.73L104.86 6.73Q104.94 6.63 104.95 6.14L104.95 6.14L104.95 5.61L105.46 5.63L105.46 8.97L104.95 8.97L104.95 8.24L104.95 8.24Q104.95 7.66 104.87 7.57L104.87 7.57L104.87 7.57Q104.79 7.46 104.44 7.46L104.44 7.46L102.34 7.46L102.34 7.46Q102.01 7.46 101.92 7.54L101.92 7.54L101.92 7.54Q101.83 7.63 101.83 7.89L101.83 7.89L101.83 11.20L101.83 11.20Q101.83 11.57 101.92 11.67L101.92 11.67L101.92 11.67Q102.01 11.77 102.28 11.77L102.28 11.77L102.28 11.77Q105.20 11.75 105.72 11.69L105.72 11.69L105.72 11.69Q106.24 11.63 106.33 11.38L106.33 11.38L106.33 11.36L106.34 11.35L106.57 10.17L107.04 10.25L106.70 12.41L99.59 12.41L99.59 11.87L99.96 11.87L99.96 11.87Q100.52 11.87 100.60 11.80L100.60 11.80L100.60 11.80Q100.70 11.72 100.70 11.33L100.70 11.33L100.70 4.24L100.70 4.24Q100.70 3.82 100.55 3.73L100.55 3.73L100.55 3.73Q100.38 3.64 99.72 3.64L99.72 3.64L99.33 3.64ZM114.89 10.04L114.89 10.04L115.38 9.98L115.57 10.85L115.57 10.85Q115.68 11.33 115.75 11.41L115.75 11.41L115.75 11.41Q115.81 11.49 116.22 11.64L116.22 11.64L116.22 11.64Q117.07 11.95 117.96 11.95L117.96 11.95L117.96 11.95Q118.75 11.95 119.29 11.49L119.29 11.49L119.29 11.49Q119.82 11.04 119.82 10.26L119.82 10.26L119.82 10.26Q119.82 9.65 119.36 9.21L119.36 9.21L119.36 9.21Q118.88 8.76 118.03 8.30L118.03 8.30L117.46 7.98L117.46 7.98Q116.71 7.55 116.48 7.36L116.48 7.36L116.48 7.36Q116.12 7.08 115.80 6.59L115.80 6.59L115.80 6.59Q115.49 6.10 115.49 5.46L115.49 5.46L115.49 5.46Q115.49 4.39 116.33 3.68L116.33 3.68L116.33 3.68Q117.17 2.97 118.28 2.97L118.28 2.97L118.28 2.97Q118.56 2.97 118.91 3.04L118.91 3.04L118.91 3.04Q119.11 3.08 119.44 3.17L119.44 3.17L119.68 3.25L119.68 3.25Q119.78 3.25 119.82 3.16L119.82 3.16L119.82 3.16Q119.88 3.05 119.88 2.98L119.88 2.98L119.89 2.88L120.37 2.85L120.58 5.41L120.07 5.43L119.95 4.18L119.95 4.18Q119.21 3.62 118.04 3.62L118.04 3.62L118.04 3.62Q117.40 3.62 116.89 4.05L116.89 4.05L116.89 4.05Q116.42 4.47 116.42 5.12L116.42 5.12L116.42 5.12Q116.42 5.72 116.87 6.17L116.87 6.17L116.87 6.17Q117.30 6.60 118.17 7.08L118.17 7.08L118.94 7.50L118.94 7.50Q119.89 8.03 120.42 8.59L120.42 8.59L120.42 8.59Q120.96 9.15 120.96 9.92L120.96 9.92L120.96 9.92Q120.96 10.99 120.10 11.76L120.10 11.76L120.10 11.76Q119.23 12.54 117.78 12.54L117.78 12.54L117.78 12.54Q117.22 12.54 116.71 12.41L116.71 12.41L116.71 12.41Q116.21 12.29 116.16 12.29L116.16 12.29L116.16 12.29Q115.90 12.29 115.90 12.58L115.90 12.58L115.92 12.76L115.44 12.80L115.44 12.80Q115.38 12.41 114.89 10.04ZM138.75 3.64L138.71 3.08L142.49 3.08L142.49 3.08Q143.81 3.08 144.68 3.19L144.68 3.19L144.68 3.19Q145.50 3.29 146.19 3.69L146.19 3.69L146.19 3.69Q147.14 4.27 147.64 5.24L147.64 5.24L147.64 5.24Q148.13 6.21 148.13 7.39L148.13 7.39L148.13 7.39Q148.13 8.05 147.99 8.65L147.99 8.65L147.99 8.65Q147.83 9.29 147.44 9.98L147.44 9.98L147.44 9.98Q147.01 10.73 146.45 11.21L146.45 11.21L146.45 11.21Q145.82 11.76 144.85 12.08L144.85 12.08L144.85 12.08Q143.85 12.41 142.58 12.41L142.58 12.41L138.96 12.41L138.95 11.87L139.32 11.87L139.32 11.87Q139.84 11.87 139.95 11.79L139.95 11.79L139.95 11.79Q140.05 11.70 140.05 11.25L140.05 11.25L140.05 4.14L140.05 4.14Q140.05 3.77 139.96 3.71L139.96 3.71L139.96 3.71Q139.85 3.64 139.34 3.64L139.34 3.64L138.75 3.64ZM141.19 4.39L141.19 11.22L141.19 11.22Q141.19 11.67 141.35 11.77L141.35 11.77L141.35 11.77Q141.51 11.87 142.38 11.87L142.38 11.87L142.38 11.87Q143.43 11.87 144.22 11.61L144.22 11.61L144.22 11.61Q145.08 11.35 145.52 10.99L145.52 10.99L145.52 10.99Q146.01 10.58 146.31 10.05L146.31 10.05L146.31 10.05Q146.62 9.52 146.75 8.96L146.75 8.96L146.75 8.96Q146.87 8.41 146.87 7.82L146.87 7.82L146.87 7.82Q146.87 7.03 146.60 6.34L146.60 6.34L146.60 6.34Q146.34 5.65 145.81 5.05L145.81 5.05L145.81 5.05Q145.28 4.46 144.37 4.09L144.37 4.09L144.37 4.09Q143.45 3.73 142.28 3.73L142.28 3.73L141.76 3.73L141.76 3.73Q141.40 3.73 141.30 3.85L141.30 3.85L141.30 3.85Q141.19 3.99 141.19 4.39L141.19 4.39ZM156.49 7.83L156.49 7.83L156.49 7.83Q156.49 6.62 156.89 5.68L156.89 5.68L156.89 5.68Q157.31 4.72 158.00 4.12L158.00 4.12L158.00 4.12Q158.69 3.51 159.55 3.19L159.55 3.19L159.55 3.19Q160.39 2.88 161.34 2.88L161.34 2.88L161.34 2.88Q162.60 2.88 163.65 3.40L163.65 3.40L163.65 3.40Q164.73 3.93 165.44 5.07L165.44 5.07L165.44 5.07Q166.14 6.17 166.15 7.75L166.15 7.75L166.15 7.75Q166.15 8.70 165.84 9.54L165.84 9.54L165.84 9.54Q165.53 10.38 164.93 11.10L164.93 11.10L164.93 11.10Q164.32 11.81 163.39 12.22L163.39 12.22L163.39 12.22Q162.42 12.63 161.23 12.64L161.23 12.64L161.23 12.64Q160.10 12.64 159.16 12.23L159.16 12.23L159.16 12.23Q158.22 11.83 157.66 11.14L157.66 11.14L157.66 11.14Q157.09 10.45 156.80 9.60L156.80 9.60L156.80 9.60Q156.49 8.72 156.49 7.83ZM157.75 7.38L157.75 7.38L157.75 7.38Q157.75 8.52 158.18 9.60L158.18 9.60L158.18 9.60Q158.58 10.64 159.51 11.33L159.51 11.33L159.51 11.33Q160.42 12.03 161.61 12.04L161.61 12.04L161.61 12.04Q162.98 12.04 163.92 11.01L163.92 11.01L163.92 11.01Q164.87 9.97 164.87 8.10L164.87 8.10L164.87 8.10Q164.87 5.99 163.71 4.72L163.71 4.72L163.71 4.72Q162.56 3.46 161.05 3.45L161.05 3.45L161.05 3.45Q160.53 3.45 159.98 3.65L159.98 3.65L159.98 3.65Q159.44 3.85 158.94 4.25L158.94 4.25L158.94 4.25Q158.39 4.68 158.07 5.48L158.07 5.48L158.07 5.48Q157.75 6.27 157.75 7.38ZM174.28 3.64L174.26 3.08L176.44 3.08L182.17 10.48L182.17 4.14L182.17 4.14Q182.17 3.81 182.02 3.72L182.02 3.72L182.02 3.72Q181.86 3.64 181.41 3.64L181.41 3.64L180.91 3.64L180.94 3.08L183.92 3.08L183.92 3.64L183.60 3.64L183.60 3.64Q183.13 3.64 182.98 3.75L182.98 3.75L182.98 3.75Q182.83 3.86 182.83 4.25L182.83 4.25L182.83 12.32L182.83 12.47L182.83 12.47Q182.83 12.52 182.82 12.57L182.82 12.57L182.82 12.57Q182.81 12.61 182.77 12.64L182.77 12.64L182.77 12.64Q182.76 12.65 182.70 12.65L182.70 12.65L182.51 12.65L182.45 12.65L182.42 12.65L182.40 12.64L182.40 12.64Q182.37 12.64 182.36 12.63L182.36 12.63L182.36 12.63Q182.34 12.61 182.34 12.60L182.34 12.60L182.34 12.60Q182.34 12.58 182.33 12.57L182.33 12.57L182.33 12.57Q182.30 12.54 182.27 12.50L182.27 12.50L182.27 12.50Q182.26 12.48 182.24 12.45L182.24 12.45L182.24 12.45Q182.22 12.41 182.21 12.40L182.21 12.40L176.10 4.56L176.17 11.22L176.17 11.22Q176.17 11.67 176.33 11.77L176.33 11.77L176.33 11.77Q176.49 11.87 177.20 11.87L177.20 11.87L177.44 11.87L177.44 12.41L174.50 12.41L174.50 11.87L174.92 11.87L174.92 11.87Q175.30 11.87 175.41 11.76L175.41 11.76L175.41 11.76Q175.51 11.66 175.51 11.25L175.51 11.25L175.51 3.80L175.37 3.64L174.28 3.64ZM191.62 5.60L191.62 5.60L191.62 5.60Q191.62 5.40 191.95 4.48L191.95 4.48L191.95 4.48Q192.01 4.31 192.15 3.79L192.15 3.79L192.34 3.13L192.34 3.13Q192.40 2.88 192.50 2.63L192.50 2.63L192.50 2.63Q192.60 2.40 192.75 2.26L192.75 2.26L192.75 2.26Q192.91 2.14 193.10 2.14L193.10 2.14L193.10 2.14Q193.31 2.14 193.42 2.29L193.42 2.29L193.42 2.29Q193.52 2.43 193.53 2.60L193.53 2.60L193.53 2.60Q193.53 2.78 193.37 3.13L193.37 3.13L193.37 3.13Q193.27 3.36 192.90 3.99L192.90 3.99L192.90 3.99Q192.64 4.40 192.50 4.69L192.50 4.69L192.50 4.69Q192.46 4.76 192.43 4.83L192.43 4.83L192.43 4.83Q192.40 4.89 192.38 4.95L192.38 4.95L192.38 4.95Q192.35 5.01 192.29 5.11L192.29 5.11L192.29 5.11Q192.18 5.32 192.14 5.41L192.14 5.41L192.14 5.41Q192.12 5.46 192.08 5.53L192.08 5.53L192.08 5.53Q192.03 5.60 192.01 5.61L192.01 5.61L192.01 5.61Q191.95 5.71 191.90 5.74L191.90 5.74L191.90 5.74Q191.84 5.76 191.79 5.76L191.79 5.76L191.79 5.76Q191.62 5.77 191.62 5.60ZM202.06 5.35L201.56 5.33L201.56 5.33Q201.68 4.17 201.76 3.08L201.76 3.08L209.84 3.08L209.84 3.08Q209.76 4.13 209.73 4.53L209.73 4.53L209.73 4.53Q209.69 5.26 209.67 5.32L209.67 5.32L209.17 5.30L209.17 5.30Q209.25 4.34 209.25 4.16L209.25 4.16L209.25 4.16Q209.25 3.88 209.11 3.79L209.11 3.79L209.11 3.79Q208.94 3.69 208.54 3.69L208.54 3.69L206.93 3.69L206.93 3.69Q206.42 3.69 206.30 3.79L206.30 3.79L206.30 3.79Q206.21 3.87 206.20 4.36L206.20 4.36L206.20 11.22L206.20 11.22Q206.20 11.66 206.34 11.76L206.34 11.76L206.34 11.76Q206.50 11.87 207.01 11.87L207.01 11.87L207.57 11.87L207.59 12.41L203.90 12.40L203.90 11.87L204.11 11.87L204.11 11.87Q204.78 11.87 204.93 11.79L204.93 11.79L204.93 11.79Q205.07 11.70 205.07 11.28L205.07 11.28L205.07 4.48L205.07 4.48Q205.07 3.92 204.97 3.80L204.97 3.80L204.97 3.80Q204.87 3.69 204.45 3.69L204.45 3.69L202.98 3.69L202.98 3.69Q202.79 3.69 202.73 3.71L202.73 3.71L202.73 3.71Q202.66 3.72 202.55 3.72L202.55 3.72L202.55 3.72Q202.52 3.72 202.41 3.79L202.41 3.79L202.41 3.79Q202.32 3.84 202.30 3.86L202.30 3.86L202.30 3.86Q202.27 3.88 202.23 3.99L202.23 3.99L202.23 3.99Q202.20 4.05 202.17 4.14L202.17 4.14L202.17 4.14Q202.15 4.21 202.13 4.36L202.13 4.36L202.13 4.36Q202.10 4.59 202.10 4.61L202.10 4.61L202.10 4.61Q202.10 4.80 202.08 4.95L202.08 4.95L202.08 4.95Q202.08 5.02 202.08 5.15L202.08 5.15L202.08 5.15Q202.07 5.29 202.06 5.35L202.06 5.35ZM227.17 3.64L227.15 3.08L234.34 3.08L234.34 3.08Q234.35 4.14 234.40 5.28L234.40 5.28L233.86 5.30L233.86 5.30Q233.84 4.66 233.79 4.25L233.79 4.25L233.79 4.25Q233.75 3.89 233.69 3.80L233.69 3.80L233.69 3.80Q233.64 3.71 233.52 3.69L233.52 3.69L233.52 3.69Q233.43 3.68 232.84 3.68L232.84 3.68L230.46 3.68L230.46 3.68Q229.91 3.68 229.77 3.77L229.77 3.77L229.77 3.77Q229.65 3.86 229.65 4.33L229.65 4.33L229.65 6.28L229.65 6.28Q229.65 6.69 229.70 6.76L229.70 6.76L229.70 6.76Q229.77 6.84 230.10 6.84L230.10 6.84L232.22 6.84L232.22 6.84Q232.59 6.84 232.67 6.74L232.67 6.74L232.67 6.74Q232.75 6.64 232.75 6.17L232.75 6.17L232.75 5.63L233.27 5.63L233.27 8.97L232.75 8.97L232.75 8.26L232.75 8.26Q232.75 7.68 232.67 7.57L232.67 7.57L232.67 7.57Q232.59 7.46 232.25 7.46L232.25 7.46L230.15 7.46L230.15 7.46Q229.82 7.46 229.73 7.54L229.73 7.54L229.73 7.54Q229.65 7.63 229.65 7.89L229.65 7.89L229.65 11.20L229.65 11.20Q229.65 11.60 229.71 11.73L229.71 11.73L229.71 11.73Q229.80 11.87 230.06 11.87L230.06 11.87L231 11.87L231 12.41L227.40 12.41L227.40 11.87L227.81 11.87L227.81 11.87Q228.32 11.87 228.42 11.79L228.42 11.79L228.42 11.79Q228.51 11.70 228.51 11.33L228.51 11.33L228.51 4.24L228.51 4.24Q228.51 3.79 228.34 3.71L228.34 3.71L228.34 3.71Q228.20 3.64 227.17 3.64L227.17 3.64ZM242.46 12.41L242.45 11.87L242.62 11.87L242.62 11.87Q243.01 11.87 243.14 11.73L243.14 11.73L243.14 11.73Q243.26 11.57 243.60 10.83L243.60 10.83L244.51 8.82L245.08 7.53L245.08 7.53Q245.35 6.97 245.39 6.86L245.39 6.86L245.39 6.86Q245.46 6.70 245.51 6.60L245.51 6.60L245.51 6.60Q245.56 6.51 245.57 6.45L245.57 6.45L245.67 6.21L247.10 2.74L247.39 2.74L247.39 2.74Q248.25 4.98 250.43 10.25L250.43 10.25L250.43 10.25Q250.89 11.34 251.08 11.64L251.08 11.64L251.08 11.64Q251.21 11.87 251.65 11.87L251.65 11.87L251.86 11.87L251.85 12.41L248.66 12.41L248.67 11.87L249.09 11.87L249.09 11.87Q249.70 11.87 249.70 11.70L249.70 11.70L249.70 11.70Q249.70 11.63 249.57 11.27L249.57 11.27L248.53 8.72L245.28 8.72L244.17 11.18L244.17 11.18Q244.04 11.50 244.04 11.63L244.04 11.63L244.04 11.63Q244.04 11.79 244.13 11.83L244.13 11.83L244.13 11.83Q244.23 11.87 244.61 11.87L244.61 11.87L245.18 11.87L245.18 12.41L242.46 12.41ZM246.96 4.79L245.55 8.10L248.29 8.10L246.96 4.79ZM259.64 3.64L259.59 3.08L263.38 3.08L263.38 3.08Q264.69 3.08 265.56 3.19L265.56 3.19L265.56 3.19Q266.38 3.29 267.07 3.69L267.07 3.69L267.07 3.69Q268.02 4.27 268.53 5.24L268.53 5.24L268.53 5.24Q269.02 6.21 269.02 7.39L269.02 7.39L269.02 7.39Q269.02 8.05 268.88 8.65L268.88 8.65L268.88 8.65Q268.72 9.29 268.33 9.98L268.33 9.98L268.33 9.98Q267.90 10.73 267.34 11.21L267.34 11.21L267.34 11.21Q266.71 11.76 265.74 12.08L265.74 12.08L265.74 12.08Q264.74 12.41 263.46 12.41L263.46 12.41L259.85 12.41L259.83 11.87L260.21 11.87L260.21 11.87Q260.73 11.87 260.83 11.79L260.83 11.79L260.83 11.79Q260.94 11.70 260.94 11.25L260.94 11.25L260.94 4.14L260.94 4.14Q260.94 3.77 260.85 3.71L260.85 3.71L260.85 3.71Q260.74 3.64 260.22 3.64L260.22 3.64L259.64 3.64ZM262.08 4.39L262.08 11.22L262.08 11.22Q262.08 11.67 262.24 11.77L262.24 11.77L262.24 11.77Q262.40 11.87 263.27 11.87L263.27 11.87L263.27 11.87Q264.32 11.87 265.11 11.61L265.11 11.61L265.11 11.61Q265.97 11.35 266.40 10.99L266.40 10.99L266.40 10.99Q266.90 10.58 267.20 10.05L267.20 10.05L267.20 10.05Q267.50 9.52 267.63 8.96L267.63 8.96L267.63 8.96Q267.76 8.41 267.76 7.82L267.76 7.82L267.76 7.82Q267.76 7.03 267.49 6.34L267.49 6.34L267.49 6.34Q267.22 5.65 266.70 5.05L266.70 5.05L266.70 5.05Q266.16 4.46 265.25 4.09L265.25 4.09L265.25 4.09Q264.33 3.73 263.17 3.73L263.17 3.73L262.65 3.73L262.65 3.73Q262.29 3.73 262.19 3.85L262.19 3.85L262.19 3.85Q262.08 3.99 262.08 4.39L262.08 4.39ZM277.01 3.64L276.99 3.08L284.20 3.08L284.20 3.08Q284.22 4.14 284.27 5.28L284.27 5.28L283.73 5.30L283.73 5.30Q283.71 4.66 283.66 4.25L283.66 4.25L283.66 4.25Q283.62 3.89 283.56 3.80L283.56 3.80L283.56 3.80Q283.51 3.71 283.39 3.69L283.39 3.69L283.39 3.69Q283.29 3.68 282.71 3.68L282.71 3.68L280.33 3.68L280.33 3.68Q279.78 3.68 279.64 3.77L279.64 3.77L279.64 3.77Q279.51 3.86 279.51 4.33L279.51 4.33L279.51 6.28L279.51 6.28Q279.51 6.69 279.57 6.76L279.57 6.76L279.57 6.76Q279.64 6.84 279.98 6.84L279.98 6.84L282.09 6.84L282.09 6.84Q282.45 6.84 282.54 6.73L282.54 6.73L282.54 6.73Q282.62 6.63 282.63 6.14L282.63 6.14L282.63 5.61L283.14 5.63L283.14 8.97L282.63 8.97L282.63 8.24L282.63 8.24Q282.63 7.66 282.55 7.57L282.55 7.57L282.55 7.57Q282.47 7.46 282.12 7.46L282.12 7.46L280.02 7.46L280.02 7.46Q279.69 7.46 279.60 7.54L279.60 7.54L279.60 7.54Q279.51 7.63 279.51 7.89L279.51 7.89L279.51 11.20L279.51 11.20Q279.51 11.57 279.60 11.67L279.60 11.67L279.60 11.67Q279.69 11.77 279.96 11.77L279.96 11.77L279.96 11.77Q282.88 11.75 283.40 11.69L283.40 11.69L283.40 11.69Q283.92 11.63 284.01 11.38L284.01 11.38L284.01 11.36L284.02 11.35L284.25 10.17L284.72 10.25L284.38 12.41L277.27 12.41L277.27 11.87L277.64 11.87L277.64 11.87Q278.20 11.87 278.28 11.80L278.28 11.80L278.28 11.80Q278.38 11.72 278.38 11.33L278.38 11.33L278.38 4.24L278.38 4.24Q278.38 3.82 278.23 3.73L278.23 3.73L278.23 3.73Q278.06 3.64 277.40 3.64L277.40 3.64L277.01 3.64Z"></path></g></svg>